<?xml version="1.0" encoding="UTF-8" standalone="no"?>
<svg width="113px" height="75px" viewBox="0 0 113 75" version="1.1" xmlns="http://www.w3.org/2000/svg" xmlns:xlink="http://www.w3.org/1999/xlink">
    <!-- Generator: Sketch 3.7.2 (28276) - http://www.bohemiancoding.com/sketch -->
    <title>logo</title>
    <desc>Created with Sketch.</desc>
    <defs>
        <radialGradient cx="50%" cy="0%" fx="50%" fy="0%" r="100%" id="radialGradient-1">
            <stop stop-color="#FFD821" offset="0%"></stop>
            <stop stop-color="#D18800" offset="100%"></stop>
        </radialGradient>
        <radialGradient cx="50%" cy="0%" fx="50%" fy="0%" r="100%" id="radialGradient-2">
            <stop stop-color="#FFD200" offset="0%"></stop>
            <stop stop-color="#FFA600" offset="100%"></stop>
        </radialGradient>
    </defs>
    <g id="Symbols" stroke="none" stroke-width="1" fill="none" fill-rule="evenodd">
        <g id="logoSignUp" transform="translate(3.000000, 3.000000)">
            <g id="logo">
                <g id="Group-2">
                    <path d="M106.941803,34.5 C97.7959783,54.834893 77.3078493,69 53.5,69 C29.6921507,69 9.20402136,54.834893 0.0581975617,34.5 C9.20402136,14.165107 29.6921507,0 53.5,0 C77.3078493,0 97.7959783,14.165107 106.941803,34.5 L106.941803,34.5 Z" id="Combined-Shape" stroke="url(#radialGradient-1)" stroke-width="5"></path>
                    <path d="M53.8147059,67.7454545 C72.4120826,67.7454545 87.4882353,52.7205378 87.4882353,34.1863636 C87.4882353,15.6521895 72.4120826,0.627272727 53.8147059,0.627272727 C35.2173291,0.627272727 20.1411765,15.6521895 20.1411765,34.1863636 C20.1411765,52.7205378 35.2173291,67.7454545 53.8147059,67.7454545 L53.8147059,67.7454545 Z" id="Oval-5" stroke="url(#radialGradient-1)" stroke-width="5"></path>
                    <ellipse id="Oval-6" fill="url(#radialGradient-2)" cx="54.4441176" cy="34.1863636" rx="16.6794118" ry="16.6227273"></ellipse>
                    <path d="M54.4441176,20.7 L56.6470588,33.8727273 L52.2411765,33.8727273 L54.4441176,20.7 L54.4441176,20.7 Z M54.4441176,47.0454545 L56.6470588,33.8727273 L52.2411765,33.8727273 L54.4441176,47.0454545 L54.4441176,47.0454545 Z" id="Combined-Shape" fill="$purple" transform="translate(54.444118, 33.872727) rotate(25.000000) translate(-54.444118, -33.872727) "></path>
                    <ellipse id="Oval-7" stroke="#979797" fill="$purple" cx="54.4441176" cy="34.1863636" rx="0.944117647" ry="0.940909091"></ellipse>
                </g>
            </g>
        </g>
    </g>
</svg>