<?xml version="1.0" encoding="UTF-8" standalone="no"?>
<svg width="406px" height="245px" viewBox="0 0 406 245" version="1.1" xmlns="http://www.w3.org/2000/svg" xmlns:xlink="http://www.w3.org/1999/xlink">
    <!-- Generator: Sketch 3.7.2 (28276) - http://www.bohemiancoding.com/sketch -->
    <title>logo</title>
    <desc>Created with Sketch.</desc>
    <defs>
      <style>
        #logo{
          stroke-dasharray: 1000;
          stroke-dashoffset: 200;
          -webkit-animation: dash 2.5s linear forwards;
          -o-animation: dash 2.5s linear forwards;
          -moz-animation: dash 2.5s linear forwards;
          animation: dash 2.5s linear forwards;
        }

        @-webkit-keyframes dash {
          from {
            stroke-dashoffset: 1000;
          }
          to {
            stroke-dashoffset: 0;
          }
        }
      </style>
        <radialGradient cx="50%" cy="0%" fx="50%" fy="0%" r="100%" id="radialGradient-1">
            <stop stop-color="#FFD821" offset="0%"></stop>
            <stop stop-color="#D18800" offset="100%"></stop>
        </radialGradient>
        <radialGradient cx="50%" cy="0%" fx="50%" fy="0%" r="100%" id="radialGradient-2">
            <stop stop-color="#FFD200" offset="0%"></stop>
            <stop stop-color="#FFA600" offset="100%"></stop>
        </radialGradient>
    </defs>
    <g id="Symbols" stroke="none" stroke-width="1" fill="none" fill-rule="evenodd">
        <g id="logo">
            <g transform="translate(27.000000, 9.000000)" id="Group-2">
                <g>
                    <path d="M176,228 C97.6788508,228 30.2786497,181.193559 0.191453661,114 C30.2786497,46.8064407 97.6788508,0 176,0 C254.321149,0 321.721349,46.8064407 351.808547,114 C321.721349,181.193559 254.321149,228 176,228 Z" id="Combined-Shape" stroke="url(#radialGradient-1)" stroke-width="12"></path>
                    <path d="M177.035294,223.854545 C238.215449,223.854545 287.811765,174.206994 287.811765,112.963636 C287.811765,51.7202784 238.215449,2.07272727 177.035294,2.07272727 C115.855139,2.07272727 66.2588235,51.7202784 66.2588235,112.963636 C66.2588235,174.206994 115.855139,223.854545 177.035294,223.854545 L177.035294,223.854545 Z" id="Oval-5" stroke="url(#radialGradient-1)" stroke-width="12"></path>
                    <ellipse id="Oval-6" fill="url(#radialGradient-2)" cx="179.105882" cy="112.963636" rx="54.8705882" ry="54.9272727"></ellipse>
                    <path d="M179.105882,68.4 L186.352941,111.927273 L171.858824,111.927273 L179.105882,68.4 L179.105882,68.4 Z M179.105882,155.454545 L186.352941,111.927273 L171.858824,111.927273 L179.105882,155.454545 L179.105882,155.454545 Z" id="Combined-Shape" fill="$purple" transform="translate(179.105882, 111.927273) rotate(25.000000) translate(-179.105882, -111.927273) "></path>
                    <ellipse id="Oval-7" stroke="#979797" fill="$purple" cx="179.105882" cy="112.963636" rx="3.10588235" ry="3.10909091"></ellipse>
                </g>
            </g>
        </g>
    </g>
</svg>
